<mxfile host="Electron" modified="2023-12-01T10:10:40.885Z" agent="Mozilla/5.0 (Windows NT 10.0; Win64; x64) AppleWebKit/537.36 (KHTML, like Gecko) draw.io/22.1.2 Chrome/114.0.5735.289 Electron/25.9.4 Safari/537.36" etag="hVRMwpnx2Sp_8Kv3oaIy" version="22.1.2" type="device">
  <diagram name="Pagina-1" id="ve_cfnoVEH6jW44p0iRx">
    <mxGraphModel dx="925" dy="570" grid="1" gridSize="10" guides="1" tooltips="1" connect="1" arrows="1" fold="1" page="1" pageScale="1" pageWidth="827" pageHeight="1169" math="0" shadow="0">
      <root>
        <mxCell id="0" />
        <mxCell id="1" parent="0" />
        <mxCell id="osDM0xe4ai97uwdkcyxL-1" value="Book" style="swimlane;fontStyle=0;childLayout=stackLayout;horizontal=1;startSize=30;horizontalStack=0;resizeParent=1;resizeParentMax=0;resizeLast=0;collapsible=1;marginBottom=0;whiteSpace=wrap;html=1;" parent="1" vertex="1">
          <mxGeometry x="80" y="450" width="250" height="240" as="geometry" />
        </mxCell>
        <mxCell id="osDM0xe4ai97uwdkcyxL-2" value="(PK) +ISBN: BigInt" style="text;strokeColor=none;fillColor=none;align=left;verticalAlign=middle;spacingLeft=4;spacingRight=4;overflow=hidden;points=[[0,0.5],[1,0.5]];portConstraint=eastwest;rotatable=0;whiteSpace=wrap;html=1;" parent="osDM0xe4ai97uwdkcyxL-1" vertex="1">
          <mxGeometry y="30" width="250" height="30" as="geometry" />
        </mxCell>
        <mxCell id="osDM0xe4ai97uwdkcyxL-3" value="+ Titel: string" style="text;strokeColor=none;fillColor=none;align=left;verticalAlign=middle;spacingLeft=4;spacingRight=4;overflow=hidden;points=[[0,0.5],[1,0.5]];portConstraint=eastwest;rotatable=0;whiteSpace=wrap;html=1;" parent="osDM0xe4ai97uwdkcyxL-1" vertex="1">
          <mxGeometry y="60" width="250" height="30" as="geometry" />
        </mxCell>
        <mxCell id="osDM0xe4ai97uwdkcyxL-18" value="(FK) +Author: AuthorId UnsignedBigInt" style="text;strokeColor=none;fillColor=none;align=left;verticalAlign=middle;spacingLeft=4;spacingRight=4;overflow=hidden;points=[[0,0.5],[1,0.5]];portConstraint=eastwest;rotatable=0;whiteSpace=wrap;html=1;" parent="osDM0xe4ai97uwdkcyxL-1" vertex="1">
          <mxGeometry y="90" width="250" height="30" as="geometry" />
        </mxCell>
        <mxCell id="osDM0xe4ai97uwdkcyxL-4" value="(FK) +GenreId UnsignedBigInt" style="text;strokeColor=none;fillColor=none;align=left;verticalAlign=middle;spacingLeft=4;spacingRight=4;overflow=hidden;points=[[0,0.5],[1,0.5]];portConstraint=eastwest;rotatable=0;whiteSpace=wrap;html=1;" parent="osDM0xe4ai97uwdkcyxL-1" vertex="1">
          <mxGeometry y="120" width="250" height="30" as="geometry" />
        </mxCell>
        <mxCell id="E6_mYG5iSdnYg2nQ93ub-19" value="+LendOutBook(): Collection&amp;lt;LendOut&amp;gt;" style="text;strokeColor=none;fillColor=none;align=left;verticalAlign=middle;spacingLeft=4;spacingRight=4;overflow=hidden;points=[[0,0.5],[1,0.5]];portConstraint=eastwest;rotatable=0;whiteSpace=wrap;html=1;" vertex="1" parent="osDM0xe4ai97uwdkcyxL-1">
          <mxGeometry y="150" width="250" height="30" as="geometry" />
        </mxCell>
        <mxCell id="E6_mYG5iSdnYg2nQ93ub-20" value="+Genre(): genre" style="text;strokeColor=none;fillColor=none;align=left;verticalAlign=middle;spacingLeft=4;spacingRight=4;overflow=hidden;points=[[0,0.5],[1,0.5]];portConstraint=eastwest;rotatable=0;whiteSpace=wrap;html=1;" vertex="1" parent="osDM0xe4ai97uwdkcyxL-1">
          <mxGeometry y="180" width="250" height="30" as="geometry" />
        </mxCell>
        <mxCell id="E6_mYG5iSdnYg2nQ93ub-21" value="+Author(): author" style="text;strokeColor=none;fillColor=none;align=left;verticalAlign=middle;spacingLeft=4;spacingRight=4;overflow=hidden;points=[[0,0.5],[1,0.5]];portConstraint=eastwest;rotatable=0;whiteSpace=wrap;html=1;" vertex="1" parent="osDM0xe4ai97uwdkcyxL-1">
          <mxGeometry y="210" width="250" height="30" as="geometry" />
        </mxCell>
        <mxCell id="E6_mYG5iSdnYg2nQ93ub-36" value="" style="endArrow=none;html=1;rounded=0;entryX=0.997;entryY=0.057;entryDx=0;entryDy=0;entryPerimeter=0;exitX=0.007;exitY=0.034;exitDx=0;exitDy=0;exitPerimeter=0;" edge="1" parent="osDM0xe4ai97uwdkcyxL-1" source="E6_mYG5iSdnYg2nQ93ub-19" target="E6_mYG5iSdnYg2nQ93ub-19">
          <mxGeometry width="50" height="50" relative="1" as="geometry">
            <mxPoint x="-50" y="230" as="sourcePoint" />
            <mxPoint y="180" as="targetPoint" />
          </mxGeometry>
        </mxCell>
        <mxCell id="osDM0xe4ai97uwdkcyxL-5" value="Customer" style="swimlane;fontStyle=0;childLayout=stackLayout;horizontal=1;startSize=30;horizontalStack=0;resizeParent=1;resizeParentMax=0;resizeLast=0;collapsible=1;marginBottom=0;whiteSpace=wrap;html=1;" parent="1" vertex="1">
          <mxGeometry x="560" y="720" width="250" height="180" as="geometry" />
        </mxCell>
        <mxCell id="osDM0xe4ai97uwdkcyxL-6" value="(PK) +Id: BigInt" style="text;strokeColor=none;fillColor=none;align=left;verticalAlign=middle;spacingLeft=4;spacingRight=4;overflow=hidden;points=[[0,0.5],[1,0.5]];portConstraint=eastwest;rotatable=0;whiteSpace=wrap;html=1;" parent="osDM0xe4ai97uwdkcyxL-5" vertex="1">
          <mxGeometry y="30" width="250" height="30" as="geometry" />
        </mxCell>
        <mxCell id="osDM0xe4ai97uwdkcyxL-7" value="+FirstName: String" style="text;strokeColor=none;fillColor=none;align=left;verticalAlign=middle;spacingLeft=4;spacingRight=4;overflow=hidden;points=[[0,0.5],[1,0.5]];portConstraint=eastwest;rotatable=0;whiteSpace=wrap;html=1;" parent="osDM0xe4ai97uwdkcyxL-5" vertex="1">
          <mxGeometry y="60" width="250" height="30" as="geometry" />
        </mxCell>
        <mxCell id="osDM0xe4ai97uwdkcyxL-8" value="+LastName: String" style="text;strokeColor=none;fillColor=none;align=left;verticalAlign=middle;spacingLeft=4;spacingRight=4;overflow=hidden;points=[[0,0.5],[1,0.5]];portConstraint=eastwest;rotatable=0;whiteSpace=wrap;html=1;" parent="osDM0xe4ai97uwdkcyxL-5" vertex="1">
          <mxGeometry y="90" width="250" height="30" as="geometry" />
        </mxCell>
        <mxCell id="E6_mYG5iSdnYg2nQ93ub-15" value="+Birthdate: Date" style="text;strokeColor=none;fillColor=none;align=left;verticalAlign=middle;spacingLeft=4;spacingRight=4;overflow=hidden;points=[[0,0.5],[1,0.5]];portConstraint=eastwest;rotatable=0;whiteSpace=wrap;html=1;" vertex="1" parent="osDM0xe4ai97uwdkcyxL-5">
          <mxGeometry y="120" width="250" height="30" as="geometry" />
        </mxCell>
        <mxCell id="E6_mYG5iSdnYg2nQ93ub-22" value="+LendOutBook(): collection&amp;lt;LendOut&amp;gt;" style="text;strokeColor=none;fillColor=none;align=left;verticalAlign=middle;spacingLeft=4;spacingRight=4;overflow=hidden;points=[[0,0.5],[1,0.5]];portConstraint=eastwest;rotatable=0;whiteSpace=wrap;html=1;" vertex="1" parent="osDM0xe4ai97uwdkcyxL-5">
          <mxGeometry y="150" width="250" height="30" as="geometry" />
        </mxCell>
        <mxCell id="E6_mYG5iSdnYg2nQ93ub-38" value="" style="endArrow=none;html=1;rounded=0;entryX=0.997;entryY=0;entryDx=0;entryDy=0;entryPerimeter=0;exitX=0.001;exitY=0.046;exitDx=0;exitDy=0;exitPerimeter=0;" edge="1" parent="osDM0xe4ai97uwdkcyxL-5" source="E6_mYG5iSdnYg2nQ93ub-22" target="E6_mYG5iSdnYg2nQ93ub-22">
          <mxGeometry width="50" height="50" relative="1" as="geometry">
            <mxPoint x="-70" y="180" as="sourcePoint" />
            <mxPoint x="-20" y="130" as="targetPoint" />
          </mxGeometry>
        </mxCell>
        <mxCell id="osDM0xe4ai97uwdkcyxL-9" value="LendOutBook" style="swimlane;fontStyle=0;childLayout=stackLayout;horizontal=1;startSize=30;horizontalStack=0;resizeParent=1;resizeParentMax=0;resizeLast=0;collapsible=1;marginBottom=0;whiteSpace=wrap;html=1;" parent="1" vertex="1">
          <mxGeometry x="80" y="800" width="250" height="300" as="geometry" />
        </mxCell>
        <mxCell id="osDM0xe4ai97uwdkcyxL-10" value="(PK) +Id: BigInt" style="text;strokeColor=none;fillColor=none;align=left;verticalAlign=middle;spacingLeft=4;spacingRight=4;overflow=hidden;points=[[0,0.5],[1,0.5]];portConstraint=eastwest;rotatable=0;whiteSpace=wrap;html=1;" parent="osDM0xe4ai97uwdkcyxL-9" vertex="1">
          <mxGeometry y="30" width="250" height="30" as="geometry" />
        </mxCell>
        <mxCell id="osDM0xe4ai97uwdkcyxL-11" value="(FK) +BookId: UnsignedBigInt" style="text;strokeColor=none;fillColor=none;align=left;verticalAlign=middle;spacingLeft=4;spacingRight=4;overflow=hidden;points=[[0,0.5],[1,0.5]];portConstraint=eastwest;rotatable=0;whiteSpace=wrap;html=1;" parent="osDM0xe4ai97uwdkcyxL-9" vertex="1">
          <mxGeometry y="60" width="250" height="30" as="geometry" />
        </mxCell>
        <mxCell id="osDM0xe4ai97uwdkcyxL-12" value="(FK) +CustomerId UnsignedBigInt" style="text;strokeColor=none;fillColor=none;align=left;verticalAlign=middle;spacingLeft=4;spacingRight=4;overflow=hidden;points=[[0,0.5],[1,0.5]];portConstraint=eastwest;rotatable=0;whiteSpace=wrap;html=1;" parent="osDM0xe4ai97uwdkcyxL-9" vertex="1">
          <mxGeometry y="90" width="250" height="30" as="geometry" />
        </mxCell>
        <mxCell id="E6_mYG5iSdnYg2nQ93ub-18" value="+From: Date" style="text;strokeColor=none;fillColor=none;align=left;verticalAlign=middle;spacingLeft=4;spacingRight=4;overflow=hidden;points=[[0,0.5],[1,0.5]];portConstraint=eastwest;rotatable=0;whiteSpace=wrap;html=1;" vertex="1" parent="osDM0xe4ai97uwdkcyxL-9">
          <mxGeometry y="120" width="250" height="30" as="geometry" />
        </mxCell>
        <mxCell id="E6_mYG5iSdnYg2nQ93ub-24" value="+Until: Date" style="text;strokeColor=none;fillColor=none;align=left;verticalAlign=middle;spacingLeft=4;spacingRight=4;overflow=hidden;points=[[0,0.5],[1,0.5]];portConstraint=eastwest;rotatable=0;whiteSpace=wrap;html=1;" vertex="1" parent="osDM0xe4ai97uwdkcyxL-9">
          <mxGeometry y="150" width="250" height="30" as="geometry" />
        </mxCell>
        <mxCell id="E6_mYG5iSdnYg2nQ93ub-37" value="" style="endArrow=none;html=1;rounded=0;exitX=-0.004;exitY=-0.011;exitDx=0;exitDy=0;exitPerimeter=0;entryX=1.005;entryY=0.034;entryDx=0;entryDy=0;entryPerimeter=0;" edge="1" parent="osDM0xe4ai97uwdkcyxL-9" source="E6_mYG5iSdnYg2nQ93ub-23" target="E6_mYG5iSdnYg2nQ93ub-23">
          <mxGeometry width="50" height="50" relative="1" as="geometry">
            <mxPoint x="100" y="230" as="sourcePoint" />
            <mxPoint x="150" y="180" as="targetPoint" />
          </mxGeometry>
        </mxCell>
        <mxCell id="E6_mYG5iSdnYg2nQ93ub-23" value="+Book(): book" style="text;strokeColor=none;fillColor=none;align=left;verticalAlign=middle;spacingLeft=4;spacingRight=4;overflow=hidden;points=[[0,0.5],[1,0.5]];portConstraint=eastwest;rotatable=0;whiteSpace=wrap;html=1;gradientColor=none;" vertex="1" parent="osDM0xe4ai97uwdkcyxL-9">
          <mxGeometry y="180" width="250" height="30" as="geometry" />
        </mxCell>
        <mxCell id="E6_mYG5iSdnYg2nQ93ub-25" value="+Customer(): customer" style="text;strokeColor=none;fillColor=none;align=left;verticalAlign=middle;spacingLeft=4;spacingRight=4;overflow=hidden;points=[[0,0.5],[1,0.5]];portConstraint=eastwest;rotatable=0;whiteSpace=wrap;html=1;" vertex="1" parent="osDM0xe4ai97uwdkcyxL-9">
          <mxGeometry y="210" width="250" height="30" as="geometry" />
        </mxCell>
        <mxCell id="E6_mYG5iSdnYg2nQ93ub-26" value="+BorrowBook()" style="text;strokeColor=none;fillColor=none;align=left;verticalAlign=middle;spacingLeft=4;spacingRight=4;overflow=hidden;points=[[0,0.5],[1,0.5]];portConstraint=eastwest;rotatable=0;whiteSpace=wrap;html=1;" vertex="1" parent="osDM0xe4ai97uwdkcyxL-9">
          <mxGeometry y="240" width="250" height="30" as="geometry" />
        </mxCell>
        <mxCell id="E6_mYG5iSdnYg2nQ93ub-27" value="+ReturnBook()" style="text;strokeColor=none;fillColor=none;align=left;verticalAlign=middle;spacingLeft=4;spacingRight=4;overflow=hidden;points=[[0,0.5],[1,0.5]];portConstraint=eastwest;rotatable=0;whiteSpace=wrap;html=1;" vertex="1" parent="osDM0xe4ai97uwdkcyxL-9">
          <mxGeometry y="270" width="250" height="30" as="geometry" />
        </mxCell>
        <mxCell id="osDM0xe4ai97uwdkcyxL-26" value="Author" style="swimlane;fontStyle=0;childLayout=stackLayout;horizontal=1;startSize=30;horizontalStack=0;resizeParent=1;resizeParentMax=0;resizeLast=0;collapsible=1;marginBottom=0;whiteSpace=wrap;html=1;" parent="1" vertex="1">
          <mxGeometry x="540" y="450" width="250" height="150" as="geometry" />
        </mxCell>
        <mxCell id="E6_mYG5iSdnYg2nQ93ub-16" value="(PK) +Id: BigInt" style="text;strokeColor=none;fillColor=none;align=left;verticalAlign=middle;spacingLeft=4;spacingRight=4;overflow=hidden;points=[[0,0.5],[1,0.5]];portConstraint=eastwest;rotatable=0;whiteSpace=wrap;html=1;" vertex="1" parent="osDM0xe4ai97uwdkcyxL-26">
          <mxGeometry y="30" width="250" height="30" as="geometry" />
        </mxCell>
        <mxCell id="osDM0xe4ai97uwdkcyxL-27" value="+Name: string" style="text;strokeColor=none;fillColor=none;align=left;verticalAlign=middle;spacingLeft=4;spacingRight=4;overflow=hidden;points=[[0,0.5],[1,0.5]];portConstraint=eastwest;rotatable=0;whiteSpace=wrap;html=1;" parent="osDM0xe4ai97uwdkcyxL-26" vertex="1">
          <mxGeometry y="60" width="250" height="30" as="geometry" />
        </mxCell>
        <mxCell id="osDM0xe4ai97uwdkcyxL-30" value="+ Genre: String" style="text;strokeColor=none;fillColor=none;align=left;verticalAlign=middle;spacingLeft=4;spacingRight=4;overflow=hidden;points=[[0,0.5],[1,0.5]];portConstraint=eastwest;rotatable=0;whiteSpace=wrap;html=1;" parent="osDM0xe4ai97uwdkcyxL-26" vertex="1">
          <mxGeometry y="90" width="250" height="30" as="geometry" />
        </mxCell>
        <mxCell id="E6_mYG5iSdnYg2nQ93ub-33" value="" style="endArrow=none;html=1;rounded=0;exitX=0.001;exitY=-0.046;exitDx=0;exitDy=0;exitPerimeter=0;entryX=1.003;entryY=0;entryDx=0;entryDy=0;entryPerimeter=0;" edge="1" parent="osDM0xe4ai97uwdkcyxL-26" source="E6_mYG5iSdnYg2nQ93ub-34" target="E6_mYG5iSdnYg2nQ93ub-34">
          <mxGeometry width="50" height="50" relative="1" as="geometry">
            <mxPoint x="100" y="150" as="sourcePoint" />
            <mxPoint x="150" y="100" as="targetPoint" />
          </mxGeometry>
        </mxCell>
        <mxCell id="E6_mYG5iSdnYg2nQ93ub-34" value="+ Books(): Collection&amp;lt;Book&amp;gt;" style="text;strokeColor=none;fillColor=none;align=left;verticalAlign=middle;spacingLeft=4;spacingRight=4;overflow=hidden;points=[[0,0.5],[1,0.5]];portConstraint=eastwest;rotatable=0;whiteSpace=wrap;html=1;" vertex="1" parent="osDM0xe4ai97uwdkcyxL-26">
          <mxGeometry y="120" width="250" height="30" as="geometry" />
        </mxCell>
        <mxCell id="osDM0xe4ai97uwdkcyxL-31" value="" style="endArrow=none;dashed=1;html=1;dashPattern=1 3;strokeWidth=2;rounded=0;" parent="1" edge="1">
          <mxGeometry width="50" height="50" relative="1" as="geometry">
            <mxPoint x="680" y="1090" as="sourcePoint" />
            <mxPoint x="730" y="1040" as="targetPoint" />
          </mxGeometry>
        </mxCell>
        <mxCell id="osDM0xe4ai97uwdkcyxL-32" value="" style="endArrow=none;html=1;rounded=0;" parent="1" edge="1">
          <mxGeometry width="50" height="50" relative="1" as="geometry">
            <mxPoint x="580" y="1090" as="sourcePoint" />
            <mxPoint x="630" y="1040" as="targetPoint" />
          </mxGeometry>
        </mxCell>
        <mxCell id="E6_mYG5iSdnYg2nQ93ub-1" value="Genre" style="swimlane;fontStyle=0;childLayout=stackLayout;horizontal=1;startSize=30;horizontalStack=0;resizeParent=1;resizeParentMax=0;resizeLast=0;collapsible=1;marginBottom=0;whiteSpace=wrap;html=1;" vertex="1" parent="1">
          <mxGeometry x="80" y="190" width="250" height="120" as="geometry" />
        </mxCell>
        <mxCell id="E6_mYG5iSdnYg2nQ93ub-2" value="(PK) +Id: BigInt" style="text;strokeColor=none;fillColor=none;align=left;verticalAlign=middle;spacingLeft=4;spacingRight=4;overflow=hidden;points=[[0,0.5],[1,0.5]];portConstraint=eastwest;rotatable=0;whiteSpace=wrap;html=1;" vertex="1" parent="E6_mYG5iSdnYg2nQ93ub-1">
          <mxGeometry y="30" width="250" height="30" as="geometry" />
        </mxCell>
        <mxCell id="E6_mYG5iSdnYg2nQ93ub-3" value="+Naam: String" style="text;strokeColor=none;fillColor=none;align=left;verticalAlign=middle;spacingLeft=4;spacingRight=4;overflow=hidden;points=[[0,0.5],[1,0.5]];portConstraint=eastwest;rotatable=0;whiteSpace=wrap;html=1;" vertex="1" parent="E6_mYG5iSdnYg2nQ93ub-1">
          <mxGeometry y="60" width="250" height="30" as="geometry" />
        </mxCell>
        <mxCell id="E6_mYG5iSdnYg2nQ93ub-4" value="+Books(): Collection&amp;lt;Books&amp;gt;" style="text;strokeColor=none;fillColor=none;align=left;verticalAlign=middle;spacingLeft=4;spacingRight=4;overflow=hidden;points=[[0,0.5],[1,0.5]];portConstraint=eastwest;rotatable=0;whiteSpace=wrap;html=1;" vertex="1" parent="E6_mYG5iSdnYg2nQ93ub-1">
          <mxGeometry y="90" width="250" height="30" as="geometry" />
        </mxCell>
        <mxCell id="E6_mYG5iSdnYg2nQ93ub-39" value="" style="endArrow=none;html=1;rounded=0;entryX=1.003;entryY=0.069;entryDx=0;entryDy=0;entryPerimeter=0;exitX=-0.004;exitY=0;exitDx=0;exitDy=0;exitPerimeter=0;" edge="1" parent="E6_mYG5iSdnYg2nQ93ub-1" source="E6_mYG5iSdnYg2nQ93ub-4" target="E6_mYG5iSdnYg2nQ93ub-4">
          <mxGeometry width="50" height="50" relative="1" as="geometry">
            <mxPoint x="-100" y="240" as="sourcePoint" />
            <mxPoint x="-50" y="190" as="targetPoint" />
          </mxGeometry>
        </mxCell>
        <mxCell id="E6_mYG5iSdnYg2nQ93ub-10" value="Harry" style="shape=umlActor;verticalLabelPosition=bottom;verticalAlign=top;html=1;outlineConnect=0;" vertex="1" parent="1">
          <mxGeometry x="640" y="950" width="30" height="60" as="geometry" />
        </mxCell>
        <mxCell id="E6_mYG5iSdnYg2nQ93ub-32" value="" style="endArrow=classic;html=1;rounded=0;exitX=0;exitY=0;exitDx=0;exitDy=0;entryX=1;entryY=0;entryDx=0;entryDy=0;" edge="1" parent="1" source="osDM0xe4ai97uwdkcyxL-26" target="osDM0xe4ai97uwdkcyxL-1">
          <mxGeometry width="50" height="50" relative="1" as="geometry">
            <mxPoint x="536" y="734" as="sourcePoint" />
            <mxPoint x="310" y="470" as="targetPoint" />
          </mxGeometry>
        </mxCell>
        <mxCell id="E6_mYG5iSdnYg2nQ93ub-40" value="" style="endArrow=classic;html=1;rounded=0;exitX=0.485;exitY=1.122;exitDx=0;exitDy=0;exitPerimeter=0;entryX=0.485;entryY=-0.004;entryDx=0;entryDy=0;entryPerimeter=0;" edge="1" parent="1" source="E6_mYG5iSdnYg2nQ93ub-4" target="osDM0xe4ai97uwdkcyxL-1">
          <mxGeometry width="50" height="50" relative="1" as="geometry">
            <mxPoint x="210" y="400" as="sourcePoint" />
            <mxPoint x="260" y="350" as="targetPoint" />
          </mxGeometry>
        </mxCell>
        <mxCell id="E6_mYG5iSdnYg2nQ93ub-41" value="" style="endArrow=classic;html=1;rounded=0;exitX=0.451;exitY=1.033;exitDx=0;exitDy=0;exitPerimeter=0;entryX=0.451;entryY=-0.003;entryDx=0;entryDy=0;entryPerimeter=0;" edge="1" parent="1" source="E6_mYG5iSdnYg2nQ93ub-21" target="osDM0xe4ai97uwdkcyxL-9">
          <mxGeometry width="50" height="50" relative="1" as="geometry">
            <mxPoint x="200" y="770" as="sourcePoint" />
            <mxPoint x="250" y="720" as="targetPoint" />
          </mxGeometry>
        </mxCell>
        <mxCell id="E6_mYG5iSdnYg2nQ93ub-42" value="" style="endArrow=classic;html=1;rounded=0;exitX=0;exitY=0;exitDx=0;exitDy=0;entryX=1;entryY=0;entryDx=0;entryDy=0;" edge="1" parent="1" source="osDM0xe4ai97uwdkcyxL-5" target="osDM0xe4ai97uwdkcyxL-9">
          <mxGeometry width="50" height="50" relative="1" as="geometry">
            <mxPoint x="450" y="840" as="sourcePoint" />
            <mxPoint x="500" y="790" as="targetPoint" />
          </mxGeometry>
        </mxCell>
      </root>
    </mxGraphModel>
  </diagram>
</mxfile>
